<svg xmlns="http://www.w3.org/2000/svg" version="1.1" xmlns:xlink="http://www.w3.org/1999/xlink" xmlns:svgjs="http://svgjs.com/svgjs" width="300" height="160" overflow="hidden"><g class="overview-logo-namecard" opacity="1"><defs id="SvgjsDefs1014"></defs><g id="SvgjsG1015" transform="scale(0.631872955137485)" opacity="1"><g id="SvgjsG1016" class="1QmPWRN_P" transform="translate(152.69621655182345, -5.970851685627301) scale(1.4550630322328022)" light-content="false" non-strokable="false" fill="#0a0a0a"><path d="M33.711 72.859c-12.262-3.71-22.75-11.504-29.859-21.785a1.901 1.901 0 0 1-.004-2.148C10.961 38.645 21.45 30.852 33.711 27.14c-7.129 5.094-11.78 13.439-11.78 22.86s4.651 17.766 11.78 22.859zM66.289 27.14c12.262 3.71 22.75 11.504 29.859 21.785.445.648.445 1.5.004 2.148-7.113 10.281-17.602 18.074-29.863 21.785C73.418 67.765 78.069 59.42 78.069 50s-4.65-17.767-11.779-22.86zM50 24.742c13.941 0 25.258 11.316 25.258 25.258S63.942 75.258 50 75.258 24.742 63.942 24.742 50 36.058 24.742 50 24.742zm0 2.32c-12.656 0-22.938 10.28-22.938 22.938S37.343 72.938 50 72.938 72.938 62.657 72.938 50 62.657 27.062 50 27.062zM35.945 51.777l3.648-3.715a.834.834 0 0 1 1.18 0l3.664 3.73-4.25 4.301zM46.406 53.8L59.89 67.523A19.995 19.995 0 0 1 50 70.125c-8.735 0-16.173-5.578-18.954-13.36l2.93-2.983 5.203 5.3a1.4 1.4 0 0 0 1 .418 1.4 1.4 0 0 0 1.004-.414zm-16.203-.191a19.977 19.977 0 0 1-.328-3.61c0-11.105 9.02-20.125 20.125-20.125S70.125 38.894 70.125 50a20.04 20.04 0 0 1-.785 5.575l-7.383-5.262c-.977-.7-2.29-.7-3.266 0l-6.918 4.934-9.586-9.754c-.527-.54-1.25-.84-2.003-.84s-1.481.3-2.008.84zm26.863-7.676v1.035c0 .774.629 1.406 1.406 1.406s1.406-.632 1.406-1.406v-1.035h1.036c.773 0 1.406-.629 1.406-1.406s-.633-1.406-1.406-1.406h-1.036v-1.036c0-.773-.629-1.406-1.406-1.406s-1.406.633-1.406 1.406v1.036h-1.035a1.405 1.405 0 1 0 0 2.812zm-11.32-5.004v1.695c0 .774.629 1.407 1.406 1.407s1.406-.633 1.406-1.407V40.93h1.696a1.405 1.405 0 1 0 0-2.812h-1.696V36.42a1.405 1.405 0 1 0-2.812 0v1.696h-1.691a1.405 1.405 0 1 0 0 2.812zm19.715 15.332l2.867 2.047a20.168 20.168 0 0 1-6.094 7.664 2.863 2.863 0 0 0-.336-.418l-8.132-8.277 1.425-1.016 4.13 4.207a1.407 1.407 0 0 0 2.008 0zm-7.953-1.652l2.371-1.692a.762.762 0 0 1 .89 0l2.372 1.692-2.817 2.867zm18.438-34.445a1.41 1.41 0 0 1-1.922.516 1.41 1.41 0 0 1-.516-1.922l4.868-8.43a1.41 1.41 0 0 1 1.921-.516c.672.39.903 1.25.516 1.922zm-2.438 61.078a1.41 1.41 0 0 1 .516-1.922 1.41 1.41 0 0 1 1.922.516l4.867 8.43a1.41 1.41 0 0 1-.515 1.921 1.41 1.41 0 0 1-1.922-.515zM26.492 18.758a1.41 1.41 0 0 1-.515 1.922 1.41 1.41 0 0 1-1.922-.516l-4.867-8.43a1.41 1.41 0 0 1 .515-1.921 1.41 1.41 0 0 1 1.922.515zm-2.437 61.078a1.41 1.41 0 0 1 1.922-.516c.672.39.902 1.25.515 1.922l-4.867 8.43a1.41 1.41 0 0 1-1.922.515 1.41 1.41 0 0 1-.515-1.921zm27.352-64.59a1.405 1.405 0 1 1-2.813 0V5.51a1.405 1.405 0 1 1 2.813 0zm-2.813 69.508a1.405 1.405 0 1 1 2.813 0v9.734a1.405 1.405 0 1 1-2.813 0z" fill-rule="evenodd"></path></g><g id="SvgjsG1017" class="text" transform="translate(226.81695556640625, 193.45170181543952) scale(1)" light-content="false" fill="#0a0a0a"><path d="M-216.72 -41.13L-226.74 -1.82C-226.93 -1.05 -226.77 -0.51 -226.24 -0.18C-226.02 -0.06 -225.8 0 -225.57 0L-220.58 0C-219.65 -0.02 -219.06 -0.45 -218.83 -1.29L-212.85 -24.76L-207.52 -1.17C-207.44 -0.86 -207.32 -0.59 -207.17 -0.35C-206.99 -0.12 -206.7 0 -206.29 0L-201.31 0C-200.37 -0.02 -199.78 -0.45 -199.55 -1.29L-189.53 -40.61C-189.33 -41.37 -189.5 -41.91 -190.03 -42.25C-190.24 -42.36 -190.47 -42.42 -190.7 -42.42L-195.68 -42.42C-196.62 -42.4 -197.21 -41.97 -197.44 -41.13L-203.3 -18.16L-208.4 -40.61C-208.57 -41.25 -208.71 -41.64 -208.81 -41.78C-208.89 -41.88 -208.96 -41.95 -209.04 -42.01C-209.37 -42.29 -209.74 -42.42 -210.13 -42.42L-214.96 -42.42C-215.9 -42.4 -216.48 -41.97 -216.72 -41.13Z M-165.55 -26.48L-163.26 -35.45L-152.04 -35.45C-151.38 -35.45 -150.82 -35.76 -150.37 -36.39C-150.22 -36.62 -150.11 -36.86 -150.05 -37.09L-149.29 -40.55C-149.03 -41.78 -149.48 -42.4 -150.64 -42.42L-172.37 -42.42C-172.86 -42.42 -173.16 -42.31 -173.27 -42.1C-173.37 -41.88 -173.47 -41.6 -173.55 -41.25L-174.48 -37.56C-174.82 -36.31 -174.59 -35.62 -173.81 -35.48C-173.67 -35.46 -173.53 -35.45 -173.37 -35.45L-171.29 -35.45L-179.87 -1.82C-180.07 -1.05 -179.91 -0.51 -179.41 -0.18C-179.19 -0.06 -178.96 0 -178.7 0L-160.71 0C-160.05 0 -159.49 -0.31 -159.04 -0.94C-158.89 -1.17 -158.78 -1.41 -158.72 -1.64L-157.96 -5.1C-157.71 -6.33 -158.16 -6.95 -159.31 -6.97L-170.53 -6.97L-167.31 -19.51L-156.91 -19.51C-156.28 -19.51 -155.75 -19.82 -155.32 -20.45C-155.19 -20.68 -155.09 -20.92 -155.03 -21.15L-154.33 -24.61C-154.07 -25.84 -154.48 -26.46 -155.56 -26.48Z M-124.92 0L-120.53 0C-119.87 0 -119.43 -0.18 -119.21 -0.53C-118.94 -0.96 -118.89 -1.56 -119.07 -2.34L-122.82 -19.66L-110.86 -40.02C-110.33 -40.88 -110.28 -41.56 -110.69 -42.07C-110.92 -42.34 -111.35 -42.48 -111.98 -42.48L-117.51 -42.48C-118.16 -42.48 -118.61 -42.38 -118.86 -42.19C-119.15 -41.95 -119.36 -41.72 -119.48 -41.48L-125.28 -29.38L-127.21 -40.49C-127.5 -41.82 -128.3 -42.48 -129.61 -42.48L-133.95 -42.48C-134.71 -42.48 -135.19 -42.27 -135.38 -41.84C-135.6 -41.41 -135.63 -40.84 -135.47 -40.14L-131.55 -22L-142.03 -2.46C-142.48 -1.62 -142.57 -0.98 -142.3 -0.53C-142.08 -0.18 -141.68 0 -141.1 0L-135.47 0C-134.87 0 -134.42 -0.11 -134.12 -0.32C-133.85 -0.52 -133.66 -0.74 -133.54 -1L-128.53 -12.04L-127.33 -1.99C-127.17 -0.66 -126.37 0 -124.92 0Z M-72.79 -42.42L-97.98 -42.42C-98.76 -42.42 -99.26 -42.27 -99.48 -41.95C-99.58 -41.78 -99.66 -41.54 -99.74 -41.25L-100.68 -37.56C-100.99 -36.31 -100.77 -35.62 -100 -35.48C-99.85 -35.46 -99.7 -35.45 -99.57 -35.45L-90.63 -35.45L-99.27 -1.52C-99.39 -1.05 -99.31 -0.68 -99.04 -0.41C-98.76 -0.14 -98.45 0 -98.1 0L-93.06 0C-92.12 -0.02 -91.54 -0.45 -91.3 -1.29L-82.6 -35.45L-74.19 -35.45C-73.53 -35.45 -72.97 -35.76 -72.52 -36.39C-72.37 -36.62 -72.26 -36.86 -72.2 -37.09L-71.44 -40.55C-71.19 -41.8 -71.64 -42.42 -72.79 -42.42Z M-34.89 -42.42L-60.08 -42.42C-60.87 -42.42 -61.36 -42.27 -61.58 -41.95C-61.68 -41.78 -61.76 -41.54 -61.84 -41.25L-62.78 -37.56C-63.09 -36.31 -62.87 -35.62 -62.11 -35.48C-61.95 -35.46 -61.8 -35.45 -61.67 -35.45L-52.73 -35.45L-61.37 -1.52C-61.49 -1.05 -61.41 -0.68 -61.14 -0.41C-60.87 -0.14 -60.55 0 -60.2 0L-55.16 0C-54.23 -0.02 -53.64 -0.45 -53.41 -1.29L-44.7 -35.45L-36.3 -35.45C-35.63 -35.45 -35.08 -35.76 -34.63 -36.39C-34.47 -36.62 -34.36 -36.86 -34.3 -37.09L-33.54 -40.55C-33.29 -41.8 -33.74 -42.42 -34.89 -42.42Z M-12.84 0.41C-8.09 0.41 -4.38 -1.86 -1.71 -6.39C-0.17 -9.02 1.24 -12.85 2.51 -17.87L8.25 -40.61C8.43 -41.37 8.26 -41.91 7.75 -42.25C7.56 -42.36 7.33 -42.42 7.08 -42.42L2.33 -42.42C1.4 -42.4 0.81 -41.97 0.58 -41.13L-5.52 -17.23C-6.9 -11.74 -8.34 -8.31 -9.82 -6.94C-10.55 -6.3 -11.38 -5.98 -12.31 -5.98C-14.01 -5.98 -14.95 -6.95 -15.13 -8.91C-15.28 -10.61 -14.89 -13.32 -13.95 -17.05L-8.04 -40.61C-7.86 -41.37 -8.03 -41.91 -8.53 -42.25C-8.73 -42.36 -8.95 -42.42 -9.21 -42.42L-14.42 -42.42C-15.36 -42.4 -15.95 -41.97 -16.18 -41.13L-22.22 -17.7C-23.92 -11.11 -23.78 -6.32 -21.81 -3.31C-21.51 -2.84 -21.18 -2.42 -20.81 -2.05C-19.21 -0.41 -16.55 0.41 -12.84 0.41Z M47.12 -42.42L21.92 -42.42C21.14 -42.42 20.64 -42.27 20.43 -41.95C20.33 -41.78 20.24 -41.54 20.17 -41.25L19.23 -37.56C18.92 -36.31 19.14 -35.62 19.9 -35.48C20.06 -35.46 20.2 -35.45 20.34 -35.45L29.28 -35.45L20.63 -1.52C20.52 -1.05 20.59 -0.68 20.87 -0.41C21.14 -0.14 21.45 0 21.81 0L26.84 0C27.78 -0.02 28.37 -0.45 28.6 -1.29L37.3 -35.45L45.71 -35.45C46.38 -35.45 46.93 -35.76 47.38 -36.39C47.54 -36.62 47.65 -36.86 47.7 -37.09L48.47 -40.55C48.72 -41.8 48.27 -42.42 47.12 -42.42Z M63.98 -22.03C65.29 -27.03 66.56 -30.55 67.79 -32.58C68.81 -34.26 70.02 -35.1 71.42 -35.1C72.65 -35.08 73.27 -33.81 73.27 -31.29C73.27 -28.77 72.65 -25 71.42 -19.98C70.21 -15.18 69 -11.72 67.79 -9.61C66.83 -8.01 65.93 -7.07 65.09 -6.8C64.8 -6.72 64.51 -6.68 64.22 -6.68C62.89 -6.68 62.22 -8.17 62.22 -11.16C62.22 -13.96 62.81 -17.58 63.98 -22.03ZM55.66 -23.91C54.61 -19.8 54.08 -16.13 54.08 -12.89C54.08 -7.71 55.1 -4.11 57.16 -2.08C58.8 -0.5 61.17 0.29 64.27 0.29C68.81 0.29 72.58 -2.49 75.61 -8.06C77.1 -10.81 78.32 -14.08 79.27 -17.87C80.6 -23.12 81.27 -27.5 81.27 -31C81.27 -35.21 80.52 -38.2 79.04 -39.96C77.54 -41.74 75.21 -42.71 72.07 -42.89L71.54 -42.89C67.77 -42.89 64.36 -40.81 61.32 -36.65C58.87 -33.29 56.99 -29.04 55.66 -23.91Z M105.34 -23L108.53 -35.51L110.26 -35.51C111.33 -35.49 111.99 -35.46 112.22 -35.42C112.61 -35.34 112.94 -35.19 113.22 -34.95C113.53 -34.7 113.69 -34.41 113.69 -34.1C113.69 -32.4 113.33 -30.24 112.63 -27.63C112.48 -27.04 112.15 -26.34 111.67 -25.52C111.16 -24.72 110.1 -24.04 108.5 -23.5C108.42 -23.46 108.1 -23.4 107.53 -23.32ZM100.5 -35.57L91.89 -1.82C91.71 -1.05 91.88 -0.51 92.39 -0.18C92.58 -0.06 92.81 0 93.06 0L98.04 0C98.98 -0.02 99.57 -0.45 99.8 -1.29L103.81 -17.08L104.9 -17.08L106.66 -2.93C106.85 -1.43 107.36 -0.49 108.18 -0.12C108.37 -0.04 108.57 0 108.76 0L113.39 0C114.43 0 114.98 -0.53 115.03 -1.58C115.03 -1.86 115.01 -2.15 114.98 -2.46L112.6 -18.34C113.81 -18.96 115.07 -19.92 116.38 -21.21C117.59 -22.29 118.7 -24.3 119.69 -27.25C120.61 -29.96 121.07 -32.48 121.07 -34.8C121.07 -38.2 119.59 -40.49 116.65 -41.66C115.34 -42.17 113.84 -42.42 112.16 -42.42L99.68 -42.42C99.23 -42.42 98.85 -42.19 98.54 -41.72C98.44 -41.56 98.37 -41.41 98.33 -41.25L97.28 -37.21C97.08 -36.56 97.24 -36.08 97.75 -35.77C97.98 -35.63 98.24 -35.57 98.51 -35.57Z M141.98 -41.13L131.96 -1.82C131.78 -1.05 131.95 -0.51 132.45 -0.18C132.65 -0.06 132.87 0 133.13 0L138.11 0C139.05 -0.02 139.63 -0.45 139.87 -1.29L149.89 -40.61C150.06 -41.37 149.9 -41.91 149.39 -42.25C149.19 -42.36 148.97 -42.42 148.71 -42.42L143.73 -42.42C142.8 -42.4 142.21 -41.97 141.98 -41.13Z M173.78 -18.4L181.16 -33.46L180.14 -18.4ZM170.35 -11.43L179.67 -11.43L179.02 -1.58C178.91 -0.7 179.22 -0.19 179.96 -0.03C180.1 -0.01 180.24 0 180.37 0L185.12 0C186.17 -0.04 186.76 -0.47 186.88 -1.29L189.04 -39.55C189.1 -40.9 188.68 -41.78 187.78 -42.19C187.47 -42.32 187.13 -42.38 186.76 -42.36L180.02 -42.3C178.97 -42.3 178.06 -41.8 177.3 -40.78C177.1 -40.51 176.93 -40.23 176.8 -39.96L157.23 -2.29C156.76 -0.94 157.15 -0.21 158.4 -0.12L158.52 -0.12L163.09 0.06C164.12 0.14 164.86 -0.25 165.31 -1.11Z M212.12 -41.13L202.1 -1.82C201.92 -1.05 202.09 -0.51 202.6 -0.18C202.79 -0.06 203.02 0 203.27 0L221.26 0C221.92 0 222.48 -0.31 222.93 -0.94C223.08 -1.17 223.19 -1.41 223.25 -1.64L224.01 -5.1C224.27 -6.33 223.82 -6.95 222.67 -6.97L211.44 -6.97L220.03 -40.61C220.2 -41.37 220.04 -41.91 219.53 -42.25C219.34 -42.36 219.11 -42.42 218.86 -42.42L213.88 -42.42C212.94 -42.4 212.35 -41.97 212.12 -41.13Z"></path></g><g id="SvgjsG1018" class="text" transform="translate(225.5092164785425, 227.52170227320318) scale(1)" light-content="false" fill="#0a0a0a"><path d="M-44.36 -14.44L-42.86 -14.02L-42.86 -0.5C-42.63 -0.31 -42.1 -0.14 -41.26 0.03C-40.42 0.2 -39.57 0.28 -38.72 0.28C-37.63 0.28 -36.64 0 -35.77 -0.55C-34.9 -1.1 -34.21 -1.85 -33.72 -2.8C-33.23 -3.75 -32.98 -4.78 -32.98 -5.9C-32.98 -7.09 -33.17 -8.08 -33.56 -8.88C-33.95 -9.68 -34.48 -10.28 -35.15 -10.67C-35.82 -11.06 -36.59 -11.26 -37.44 -11.26C-38.05 -11.26 -38.6 -11.16 -39.07 -10.97C-39.54 -10.78 -39.99 -10.53 -40.4 -10.22L-40.4 -15.72L-40.86 -15.88L-44.36 -15.48ZM-39.7 -1.1C-40.05 -1.23 -40.27 -1.43 -40.38 -1.7L-40.38 -9.1C-40.17 -9.29 -39.89 -9.44 -39.55 -9.57C-39.21 -9.7 -38.83 -9.76 -38.42 -9.76C-37.87 -9.76 -37.37 -9.61 -36.92 -9.3C-36.47 -8.99 -36.1 -8.54 -35.83 -7.94C-35.56 -7.34 -35.42 -6.62 -35.42 -5.78C-35.42 -4.78 -35.55 -3.91 -35.81 -3.17C-36.07 -2.43 -36.43 -1.87 -36.88 -1.48C-37.33 -1.09 -37.85 -0.9 -38.44 -0.9C-38.93 -0.9 -39.35 -0.97 -39.7 -1.1Z M-29.62 3.14C-29.98 3.15 -30.32 3.11 -30.64 3.02L-30.64 4.98C-30.57 5.02 -30.43 5.05 -30.21 5.08C-29.99 5.11 -29.78 5.12 -29.58 5.12C-29.01 5.12 -28.51 4.95 -28.1 4.62C-27.5 4.37 -26.97 3.91 -26.52 3.24C-26.07 2.57 -25.6 1.64 -25.12 0.44C-24.85 -0.23 -24.36 -1.52 -23.64 -3.44C-22.92 -5.36 -22.2 -7.37 -21.48 -9.46L-20.46 -9.64L-20.46 -10.92L-24.94 -10.92L-24.94 -9.64L-23.48 -9.44L-25.3 -3.36L-25.78 -1.74L-26.26 -3.34L-28.4 -9.42L-27.1 -9.64L-27.1 -10.92L-32.06 -10.92L-32.06 -9.64L-31.1 -9.42L-27.22 -0.02L-26.74 -0.02C-27.06 1.1 -27.47 1.91 -27.98 2.4C-28.49 2.89 -29.03 3.14 -29.62 3.14Z M-12.69 -0.02C-11.76 0.15 -10.86 0.24 -9.98 0.24C-8.45 0.24 -7.18 -0.12 -6.17 -0.83C-5.16 -1.54 -4.66 -2.59 -4.66 -3.96C-4.66 -4.65 -4.85 -5.27 -5.22 -5.81C-5.59 -6.35 -6.07 -6.82 -6.64 -7.22C-7.21 -7.62 -7.93 -8.05 -8.78 -8.5C-9.97 -9.13 -10.85 -9.69 -11.43 -10.2C-12.01 -10.71 -12.3 -11.31 -12.3 -12.02C-12.3 -12.74 -12.03 -13.28 -11.5 -13.63C-10.97 -13.98 -10.37 -14.16 -9.7 -14.16C-9.27 -14.16 -8.86 -14.11 -8.45 -14.01C-8.04 -13.91 -7.74 -13.77 -7.54 -13.6L-6.74 -11.66L-5.6 -11.66L-5.6 -14.58C-5.96 -14.77 -6.54 -14.93 -7.33 -15.08C-8.12 -15.23 -8.92 -15.3 -9.72 -15.3C-10.51 -15.3 -11.28 -15.15 -12.03 -14.86C-12.78 -14.57 -13.4 -14.13 -13.89 -13.54C-14.38 -12.95 -14.62 -12.24 -14.62 -11.4C-14.62 -10.67 -14.43 -10.02 -14.04 -9.47C-13.65 -8.92 -13.16 -8.43 -12.56 -8.02C-11.96 -7.61 -11.16 -7.13 -10.16 -6.6C-9.16 -6.04 -8.4 -5.52 -7.87 -5.03C-7.34 -4.54 -7.08 -3.99 -7.08 -3.36C-7.08 -2.57 -7.34 -1.97 -7.87 -1.56C-8.4 -1.15 -9.04 -0.94 -9.8 -0.94C-10.47 -0.94 -11.06 -1.01 -11.57 -1.16C-12.08 -1.31 -12.51 -1.57 -12.84 -1.96L-13.58 -4.04L-14.66 -4.04L-14.66 -0.6C-14.27 -0.39 -13.62 -0.19 -12.69 -0.02Z M4.94 -10.3C4.23 -10.87 3.23 -11.16 1.94 -11.16C1.23 -11.16 0.46 -11.06 -0.39 -10.85C-1.24 -10.64 -1.89 -10.35 -2.34 -9.98L-1.88 -8.88C-1.47 -9.11 -0.98 -9.29 -0.42 -9.44C0.14 -9.59 0.64 -9.66 1.08 -9.66C1.89 -9.66 2.51 -9.48 2.92 -9.12C3.33 -8.76 3.54 -8.13 3.54 -7.22L3.54 -6.62C2.55 -6.62 1.57 -6.49 0.6 -6.23C-0.37 -5.97 -1.19 -5.55 -1.84 -4.98C-2.49 -4.41 -2.82 -3.68 -2.82 -2.8C-2.82 -2.21 -2.67 -1.69 -2.38 -1.22C-2.09 -0.75 -1.67 -0.39 -1.14 -0.13C-0.61 0.13 0 0.26 0.68 0.26C2.01 0.26 3.05 -0.15 3.78 -0.98C3.79 -0.54 3.91 -0.22 4.12 -0.03C4.33 0.16 4.68 0.26 5.16 0.26C5.53 0.26 5.91 0.22 6.3 0.13C6.69 0.04 7 -0.07 7.24 -0.22L7.24 -1.02L6 -1.02L6 -7.42C6 -8.77 5.65 -9.73 4.94 -10.3ZM0.85 -4.88C1.64 -5.24 2.54 -5.42 3.54 -5.42L3.52 -1.9C3.32 -1.71 3.05 -1.55 2.71 -1.42C2.37 -1.29 2.04 -1.22 1.72 -1.22C0.35 -1.22 -0.34 -1.87 -0.34 -3.16C-0.34 -3.95 0.06 -4.52 0.85 -4.88Z M12.41 -15.99C12.15 -16.25 11.77 -16.38 11.28 -16.38C10.83 -16.38 10.41 -16.21 10.04 -15.88C9.67 -15.55 9.48 -15.15 9.48 -14.68C9.48 -14.25 9.63 -13.91 9.93 -13.64C10.23 -13.37 10.59 -13.24 11 -13.24C11.48 -13.24 11.9 -13.4 12.26 -13.72C12.62 -14.04 12.8 -14.45 12.8 -14.94C12.8 -15.38 12.67 -15.73 12.41 -15.99ZM12.58 -10.96L12 -11.16L8.86 -10.22L8.86 -9.5L10.18 -8.54L10.18 -1.24L8.64 -1.02L8.64 0L14.1 0L14.1 -1.02L12.58 -1.24Z M17.3 -1.26L15.48 -1.02L15.48 0L22.04 0L22.04 -1.02L19.76 -1.24L19.76 -9.36L22.7 -9.36L22.7 -10.92L19.76 -10.92L19.76 -12.64C19.76 -13.25 19.81 -13.72 19.92 -14.03C20.03 -14.34 20.19 -14.56 20.41 -14.67C20.63 -14.78 20.93 -14.84 21.32 -14.84C21.68 -14.84 22.05 -14.8 22.43 -14.71C22.81 -14.62 23.09 -14.53 23.26 -14.44L23.26 -16.42C23.14 -16.49 22.93 -16.54 22.63 -16.59C22.33 -16.64 21.99 -16.66 21.6 -16.66C20.93 -16.66 20.27 -16.44 19.6 -16C18.93 -15.56 18.38 -14.96 17.95 -14.21C17.52 -13.46 17.3 -12.63 17.3 -11.74L17.3 -10.86L15.28 -10.22L15.28 -9.36L17.3 -9.36Z M33.3 -9.75C32.43 -10.76 31.17 -11.26 29.52 -11.26C28.49 -11.26 27.56 -11.03 26.73 -10.56C25.9 -10.09 25.23 -9.43 24.74 -8.56C24.25 -7.69 24 -6.67 24 -5.5C24 -3.79 24.44 -2.41 25.32 -1.35C26.2 -0.29 27.5 0.24 29.22 0.24C30.25 0.24 31.17 -0.01 31.98 -0.51C32.79 -1.01 33.43 -1.71 33.9 -2.61C34.37 -3.51 34.6 -4.55 34.6 -5.72C34.6 -7.4 34.17 -8.74 33.3 -9.75ZM26.62 -5.78C26.62 -8.63 27.52 -10.06 29.32 -10.06C30.24 -10.06 30.92 -9.64 31.35 -8.81C31.78 -7.98 32 -6.89 32 -5.54C32 -4.07 31.8 -2.95 31.39 -2.16C30.98 -1.37 30.29 -0.99 29.32 -1C28.43 -1.01 27.75 -1.49 27.3 -2.42C26.85 -3.35 26.62 -4.47 26.62 -5.78Z M37.98 -1.24L36.54 -1.02L36.54 0L43.04 0L43.04 -1.02L40.46 -1.28L40.46 -8.5C41.01 -8.86 41.69 -9.04 42.52 -9.04C43.19 -9.04 43.76 -8.92 44.24 -8.68L44.24 -11.08C44.09 -11.13 43.77 -11.16 43.26 -11.16C42.7 -11.16 42.09 -10.96 41.43 -10.57C40.77 -10.18 40.33 -9.76 40.12 -9.32L40.12 -10.98L39.56 -11.16L36.6 -10.28L36.6 -9.44L37.98 -8.62Z"></path></g></g></g></svg>